<svg width="25" height="26" viewBox="0 0 25 26" fill="none" xmlns="http://www.w3.org/2000/svg">
<g clip-path="url(#clip0_1_38)">
<path d="M24.9435 1.57206C25.0003 1.43009 25.0143 1.27455 24.9835 1.12475C24.9528 0.97494 24.8788 0.837447 24.7706 0.729311C24.6625 0.621176 24.525 0.547155 24.3752 0.516425C24.2254 0.485694 24.0699 0.499606 23.9279 0.556435L1.1982 9.64862H1.19664L0.490389 9.92987C0.356624 9.98323 0.24021 10.0725 0.154007 10.1879C0.0678042 10.3033 0.015167 10.4402 0.00190991 10.5836C-0.0113472 10.727 0.0152918 10.8713 0.0788842 11.0005C0.142477 11.1297 0.240548 11.2388 0.362264 11.3158L1.00289 11.7221L1.00445 11.7252L8.80914 16.6908L13.7748 24.4955L13.7779 24.4986L14.1841 25.1392C14.2614 25.2605 14.3705 25.3581 14.4997 25.4213C14.6288 25.4845 14.7728 25.5108 14.916 25.4974C15.0591 25.484 15.1957 25.4314 15.3109 25.3453C15.426 25.2592 15.5152 25.143 15.5685 25.0096L24.9435 1.57206ZM22.0795 4.52519L10.3701 16.2346L10.0341 15.7064C9.97259 15.6095 9.89043 15.5274 9.79351 15.4658L9.26539 15.1299L20.9748 3.4205L22.8154 2.68456L22.081 4.52519H22.0795Z" fill="white"/>
</g>
<defs>
<clipPath id="clip0_1_38">
<rect width="25" height="25" fill="white" transform="translate(0 0.5)"/>
</clipPath>
</defs>
</svg>
