<svg width="30" height="31" viewBox="0 0 30 31" fill="none" xmlns="http://www.w3.org/2000/svg">
<g clip-path="url(#clip0_1_38)">
<path d="M29.9325 1.78637C30.0007 1.616 30.0174 1.42937 29.9805 1.2496C29.9436 1.06983 29.8548 0.904838 29.725 0.775076C29.5953 0.645314 29.4303 0.556489 29.2505 0.519612C29.0708 0.482736 28.8841 0.49943 28.7138 0.567625L1.43813 11.4782H1.43625L0.588752 11.8157C0.428234 11.8798 0.288537 11.9869 0.185094 12.1254C0.0816504 12.2638 0.0184857 12.4281 0.00257723 12.6002C-0.0133313 12.7723 0.0186355 12.9454 0.0949463 13.1005C0.171257 13.2556 0.288942 13.3865 0.435002 13.4789L1.20375 13.9664L1.20563 13.9701L10.5713 19.9289L16.53 29.2945L16.5338 29.2982L17.0213 30.067C17.1139 30.2125 17.2449 30.3296 17.3999 30.4054C17.5548 30.4813 17.7277 30.5129 17.8994 30.4968C18.0712 30.4807 18.2352 30.4175 18.3733 30.3142C18.5115 30.211 18.6185 30.0716 18.6825 29.9114L29.9325 1.78637ZM26.4956 5.33012L12.4444 19.3814L12.0413 18.7476C11.9674 18.6313 11.8688 18.5327 11.7525 18.4589L11.1188 18.0557L25.17 4.0045L27.3788 3.12137L26.4975 5.33012H26.4956Z" fill="white"/>
</g>
<defs>
<clipPath id="clip0_1_38">
<rect width="30" height="30" fill="white" transform="translate(0 0.5)"/>
</clipPath>
</defs>
</svg>
